<svg width="130" height="51" viewBox="0 0 130 51" fill="none" xmlns="http://www.w3.org/2000/svg">
<g id="hover">
<g id="Group 14419">
<rect id="shado" x="1.26473" y="0.989403" width="127.567" height="48.9168" rx="9.11195" fill="white" stroke="#E0E0E0" stroke-width="0.959153"/>
<g id="svgexport-10 - 2022-07-17T185732.506">
<g id="Layer 2">
<path id="Path 23734" d="M59.4197 25.5862L59.3256 25.3037L58.9024 25.0552C58.91 25.0492 58.9172 25.0428 58.9241 25.036C58.9464 25.0137 58.9639 24.9871 58.9757 24.9578C58.9875 24.9285 58.9932 24.8971 58.9926 24.8655H59.4721V24.862V22.5342V22.0547H58.9926H55.6825C55.6132 22.0512 55.5476 22.0216 55.4989 21.9714C55.4489 21.9198 55.4209 21.8506 55.4209 21.7784C55.4209 21.7062 55.4489 21.637 55.4989 21.5854C55.5476 21.5352 55.6132 21.5056 55.6825 21.5022H58.9886H59.4681V21.0226V18.6954C59.4681 18.6954 59.4681 18.6953 59.4681 18.6953C59.4681 18.5066 59.3936 18.3254 59.2605 18.1913C59.1274 18.0571 58.9465 17.9811 58.7573 17.98V17.98H58.7545H55.6825C55.6132 17.9765 55.5476 17.9469 55.4989 17.8967C55.4489 17.8451 55.4209 17.7759 55.4209 17.7037C55.4209 17.6315 55.4489 17.5623 55.4989 17.5108C55.5476 17.4605 55.6132 17.4309 55.6825 17.4275H58.7588C59.0941 17.4281 59.4155 17.562 59.6526 17.8001C59.8897 18.0383 60.0228 18.3613 60.0225 18.6981V18.6987L60.0225 24.8714C60.0225 24.8715 60.0225 24.8716 60.0225 24.8717C60.0219 25.2084 59.8879 25.531 59.6502 25.7685C59.4124 26.006 59.0905 26.1391 58.7551 26.1387H58.7545H55.6736H55.6664L55.6593 26.1389C55.6226 26.14 55.5861 26.1337 55.5518 26.1204C55.5176 26.1071 55.4863 26.087 55.4598 26.0612C55.4334 26.0355 55.4123 26.0046 55.3979 25.9705C55.3834 25.9363 55.376 25.8996 55.376 25.8625C55.376 25.8253 55.3834 25.7886 55.3979 25.7544C55.4123 25.7203 55.4334 25.6894 55.4598 25.6637C55.4863 25.638 55.5176 25.6178 55.5518 25.6045C55.5861 25.5912 55.6226 25.5849 55.6593 25.586L55.6664 25.5862H55.6736H58.7545H59.4197ZM60.502 24.8722V18.6987C60.5026 18.235 60.3193 17.7901 59.9924 17.4618C59.6656 17.1334 59.222 16.9486 58.7592 16.9479L60.502 24.8722Z" stroke="#B93C3C" stroke-width="0.959153"/>
<path id="Path 23735" d="M63.0694 22.0553H63.549H65.8772C66.0667 22.0553 66.2483 22.1308 66.3821 22.2648C66.5158 22.3987 66.5908 22.5803 66.5908 22.7694V24.8728C66.5908 25.0619 66.5158 25.2434 66.3821 25.3774C66.2483 25.5114 66.0667 25.5869 65.8772 25.5869H63.7851H63.7843V25.1073L63.0694 22.0553ZM63.0694 22.0553V22.5349M63.0694 22.0553V22.5349M63.0694 22.5349V24.8728C63.0694 24.8728 63.0694 24.8728 63.0694 24.8728V22.5349ZM67.1404 22.7748V22.776L67.1404 24.8714C67.1404 24.8715 67.1404 24.8716 67.1404 24.8717C67.1398 25.2078 67.0063 25.5299 66.7693 25.7673C66.5325 26.0046 66.2116 26.138 65.877 26.1387C65.8768 26.1387 65.8766 26.1387 65.8764 26.1387H63.7852C63.7851 26.1387 63.7849 26.1387 63.7848 26.1387C63.45 26.1379 63.1289 26.0044 62.8918 25.767C62.6546 25.5296 62.5208 25.2077 62.5197 24.8715V18.6992C62.5205 18.3627 62.6542 18.0405 62.8914 17.8028C63.1286 17.5652 63.4498 17.4316 63.7848 17.4308H66.8564C66.9256 17.4342 66.9913 17.4639 67.04 17.5141C67.0899 17.5656 67.118 17.6348 67.118 17.7071C67.118 17.7793 67.0899 17.8485 67.04 17.9C66.9913 17.9502 66.9256 17.9799 66.8564 17.9833H63.7843C63.5944 17.9833 63.4125 18.0589 63.2785 18.1931C63.1445 18.3274 63.0694 18.5092 63.0694 18.6987V21.0226V21.5022H63.549L65.8764 21.5022C65.8765 21.5022 65.8766 21.5022 65.8767 21.5022C66.0429 21.5024 66.2074 21.5355 66.3608 21.5995C66.5143 21.6636 66.6538 21.7573 66.7712 21.8755C66.8887 21.9936 66.9817 22.1338 67.0451 22.2882C67.1085 22.4425 67.1409 22.6078 67.1404 22.7748Z" stroke="#B93C3C" stroke-width="0.959153"/>
<path id="Path 23736" d="M72.3817 26.1387H72.5185C72.9803 26.1387 73.4233 25.955 73.7503 25.6278C74.0772 25.3005 74.2612 24.8566 74.2618 24.3932M72.3817 26.1387L74.2618 24.3932M72.3817 26.1387L72.3839 26.136L71.388 26.1354C70.9262 26.1351 70.4832 25.9513 70.1563 25.624C69.8294 25.2968 69.6452 24.8529 69.6444 24.3895V19.1735C69.6455 18.7102 69.8298 18.2664 70.1567 17.9392C70.4835 17.612 70.9263 17.4281 71.388 17.4275H72.5207M72.3817 26.1387L72.5207 17.4275M74.2618 24.3932C74.2618 24.3931 74.2618 24.3929 74.2618 24.3928M74.2618 24.3932L74.2618 24.3928M74.2618 24.3928L74.2618 19.1763C74.2618 18.7127 74.0782 18.2683 73.7516 17.9405C73.4251 17.6128 72.9824 17.4284 72.5207 17.4275M74.2618 24.3928L72.5207 17.4275M70.1894 19.1754V19.1763L70.1894 24.3932L70.1894 24.3941C70.19 24.7102 70.3157 25.0133 70.5393 25.2369C70.7629 25.4605 71.0661 25.5862 71.3824 25.5862H72.5158C72.8321 25.5862 73.1353 25.4605 73.3589 25.2369C73.5825 25.0133 73.7082 24.7102 73.7088 24.3941V24.3932L73.7088 19.1763L73.7088 19.1754C73.7082 18.8593 73.5825 18.5562 73.3589 18.3326C73.1353 18.1091 72.8321 17.9833 72.5158 17.9833H71.3824C71.0661 17.9833 70.7629 18.1091 70.5393 18.3326C70.3157 18.5562 70.19 18.8593 70.1894 19.1754Z" stroke="#B93C3C" stroke-width="0.959153"/>
<path id="Path 23737" d="M77.0165 14.972L77.0151 14.972C76.7455 14.9723 76.4872 15.0797 76.2968 15.2704L76.2958 15.2715C76.1308 15.4377 76.0285 15.656 76.0062 15.8891C75.9838 16.1221 76.0427 16.3558 76.173 16.5504C76.3033 16.7451 76.497 16.8886 76.7213 16.9565C76.9456 17.0244 77.1864 17.0124 77.4029 16.9225C77.6192 16.8325 77.7977 16.6704 77.9079 16.4638C78.0182 16.2572 78.0536 16.0188 78.0082 15.7891C77.9627 15.5594 77.8393 15.3524 77.6585 15.2034C77.4778 15.0543 77.2509 14.9725 77.0165 14.972ZM77.8866 17.2947C77.6288 17.467 77.3258 17.5588 77.016 17.5585C76.6014 17.558 76.2036 17.3928 75.9101 17.0988C75.6166 16.8047 75.4514 16.4058 75.451 15.9895C75.4506 15.6786 75.5424 15.3746 75.7146 15.1161C75.8867 14.8576 76.1314 14.6562 76.4176 14.5373C76.7038 14.4183 77.0188 14.3871 77.3226 14.4476C77.6265 14.5081 77.9058 14.6575 78.125 14.8772C78.3443 15.0969 78.4936 15.3769 78.5541 15.6818C78.6146 15.9868 78.5834 16.3028 78.4645 16.59C78.3456 16.8771 78.1445 17.1223 77.8866 17.2947Z" stroke="#B93C3C" stroke-width="0.959153"/>
<path id="Path 23738" d="M62.3408 31.0812L62.341 31.0813L64.9209 33.6634C64.9725 33.7152 65.0017 33.7856 65.0017 33.8592C65.0017 33.9327 64.9725 34.0031 64.9209 34.0549L62.3408 36.6398L62.3352 36.6455L62.3297 36.6513C62.3044 36.6784 62.2741 36.7 62.2404 36.715C62.2067 36.73 62.1704 36.738 62.1336 36.7386C62.0969 36.7392 62.0603 36.7324 62.0262 36.7186C61.992 36.7048 61.961 36.6841 61.9348 36.658C61.9087 36.6318 61.888 36.6005 61.8741 36.5661C61.8602 36.5316 61.8533 36.4947 61.854 36.4574C61.8546 36.4202 61.8627 36.3835 61.8777 36.3496C61.8928 36.3156 61.9144 36.2851 61.9414 36.2598L61.9472 36.2544L61.9527 36.2488L63.2729 34.9276L64.0586 34.1412L62.9474 34.1092C58.8364 33.991 54.616 33.4429 51.4387 32.4616C49.8473 31.9701 48.5493 31.3794 47.659 30.7031C46.7697 30.0276 46.3449 29.3148 46.3449 28.5687C46.3449 27.9229 46.6779 27.2654 47.4576 26.6136C48.2416 25.9582 49.4398 25.3437 51.0609 24.8056C51.0951 24.7943 51.1311 24.7899 51.1669 24.7925C51.2029 24.7952 51.238 24.8049 51.2702 24.8211C51.3025 24.8374 51.3313 24.8599 51.355 24.8874C51.3787 24.9148 51.3968 24.9468 51.4082 24.9814C51.4196 25.016 51.4241 25.0525 51.4214 25.0889C51.4188 25.1252 51.409 25.1607 51.3927 25.1932C51.3763 25.2257 51.3538 25.2546 51.3264 25.2783C51.299 25.302 51.2673 25.32 51.233 25.3314C49.7271 25.8301 48.6707 26.3707 47.9803 26.8999C47.3121 27.412 46.8953 27.987 46.8953 28.5681C46.8953 29.3122 47.4872 29.943 48.2442 30.4466C49.0354 30.9729 50.1628 31.466 51.5506 31.898C54.3324 32.7638 58.2518 33.4117 62.8591 33.551L64.0675 33.5875L63.2128 32.7325L61.9529 31.4723C61.9529 31.4723 61.9528 31.4722 61.9527 31.4722C61.9012 31.4205 61.8721 31.3502 61.8721 31.2767C61.8721 31.2032 61.9013 31.1329 61.9529 31.0812C62.0045 31.0295 62.0743 31.0006 62.1469 31.0006C62.2194 31.0006 62.2892 31.0295 62.3408 31.0812Z" stroke="#B93C3C" stroke-width="0.959153"/>
<path id="Path 23739" d="M78.3762 24.8008L78.3841 24.8037L78.3921 24.8063C80.0128 25.3438 81.2108 25.958 81.9946 26.6134C82.774 27.2652 83.1068 27.9228 83.1066 28.5686V28.5688C83.1066 29.2686 82.7246 29.9428 81.922 30.5889C81.1171 31.2368 79.9387 31.813 78.4804 32.3026C75.5716 33.2792 71.6725 33.8712 67.7675 34.065L67.7434 34.0649L67.7404 34.065C67.6686 34.0654 67.5993 34.0376 67.5474 33.9872C67.4956 33.9368 67.4654 33.8678 67.4637 33.795C67.4619 33.7222 67.4888 33.6519 67.5382 33.599C67.5876 33.5462 67.6556 33.515 67.7273 33.512L67.7273 33.5121L67.7309 33.5119C72.1991 33.292 75.8376 32.6244 78.3738 31.7719C79.6391 31.3467 80.6528 30.8679 81.3604 30.3598C82.0431 29.8697 82.5576 29.2662 82.5576 28.5688C82.5576 27.9874 82.1403 27.4135 81.4724 26.9021C80.7823 26.3735 79.7261 25.8326 78.2206 25.331L78.2123 25.3282L78.2039 25.3257C78.1685 25.3154 78.1356 25.298 78.107 25.2745C78.0784 25.251 78.0547 25.222 78.0375 25.1891C78.0202 25.1561 78.0098 25.12 78.0067 25.0829C78.0037 25.0458 78.0081 25.0084 78.0198 24.9731C78.0315 24.9377 78.0501 24.9052 78.0746 24.8773C78.099 24.8494 78.1288 24.8268 78.162 24.8108C78.1953 24.7948 78.2313 24.7857 78.2681 24.784C78.3049 24.7822 78.3417 24.7879 78.3762 24.8008Z" stroke="#B93C3C" stroke-width="0.959153"/>
</g>
</g>
</g>
</g>
</svg>
